<svg xmlns="http://www.w3.org/2000/svg" viewBox="0 0 100 100">
  <defs>
    <filter id="dropShadow" x="-20%" y="-20%" width="140%" height="140%">
      <feGaussianBlur in="SourceAlpha" stdDeviation="2"/>
      <feOffset dx="0" dy="2" result="offsetblur"/>
      <feComponentTransfer>
        <feFuncA type="linear" slope="0.3"/>
      </feComponentTransfer>
      <feMerge>
        <feMergeNode/>
        <feMergeNode in="SourceGraphic"/>
      </feMerge>
    </filter>
  </defs>
  <!-- Map Pin Shape -->
  <path d="M50 5 C25.1 5 5 25.1 5 50 C5 74.9 50 95 50 95 C50 95 95 74.9 95 50 C95 25.1 74.9 5 50 5 Z" fill="#0ea5e9" filter="url(#dropShadow)"/>
  
  <!-- Letter G -->
  <path d="M65 40 A 15 15 0 0 0 50 35 A 15 15 0 0 0 35 50 A 15 15 0 0 0 50 65 A 15 15 0 0 0 63 58 L 63 50 L 50 50 L 50 45 L 68 45 L 68 60 A 20 20 0 0 1 50 70 A 20 20 0 0 1 30 50 A 20 20 0 0 1 50 30 A 20 20 0 0 1 68 38 L 65 40 Z" fill="white" />
</svg>
